<svg width="45" height="32" viewBox="0 0 45 32" fill="none" xmlns="http://www.w3.org/2000/svg">
<rect x="0.5" y="0.5" width="44" height="30.7647" rx="4.79412" fill="#1A1A1A" stroke="#333333"/>
<path fill-rule="evenodd" clip-rule="evenodd" d="M12.5064 11.0424C12.1287 11.5081 11.5244 11.8755 10.92 11.823C10.8445 11.1932 11.1404 10.5241 11.4866 10.1109C11.8643 9.632 12.5253 9.29089 13.0604 9.26465C13.1234 9.92063 12.8779 10.5635 12.5064 11.0424ZM13.054 11.9476C12.5216 11.9157 12.0358 12.1144 11.6434 12.275C11.3908 12.3783 11.177 12.4658 11.0143 12.4658C10.8318 12.4658 10.6091 12.3736 10.3591 12.2702C10.0315 12.1345 9.657 11.9795 9.26426 11.9869C8.36405 12.0001 7.52679 12.5314 7.06724 13.3776C6.12296 15.0701 6.82172 17.5759 7.73453 18.9535C8.18149 19.6357 8.71658 20.3835 9.42164 20.3573C9.73182 20.3451 9.95495 20.2464 10.1859 20.1443C10.4517 20.0268 10.7279 19.9046 11.1591 19.9046C11.5754 19.9046 11.8395 20.0236 12.093 20.1377C12.334 20.2463 12.5655 20.3505 12.9092 20.3441C13.6394 20.331 14.099 19.6619 14.5459 18.9797C15.0283 18.2475 15.2402 17.5329 15.2724 17.4245L15.2762 17.4119C15.2754 17.4111 15.2694 17.4083 15.2589 17.4032C15.0977 17.3263 13.8653 16.7384 13.8535 15.1619C13.8416 13.8386 14.831 13.1682 14.9867 13.0627C14.9962 13.0562 15.0026 13.0519 15.0055 13.0496C14.376 12.0788 13.3939 11.9738 13.054 11.9476ZM18.1094 20.2721V10.0453H21.7921C23.6932 10.0453 25.0215 11.4098 25.0215 13.4039C25.0215 15.3981 23.668 16.7757 21.7417 16.7757H19.6328V20.2721H18.1094ZM19.6326 11.3834H21.389C22.7109 11.3834 23.4664 12.1181 23.4664 13.4104C23.4664 14.7027 22.7109 15.4439 21.3827 15.4439H19.6326V11.3834ZM30.0513 19.0453C29.6484 19.8456 28.7608 20.3507 27.8039 20.3507C26.3875 20.3507 25.3991 19.4717 25.3991 18.1466C25.3991 16.8346 26.356 16.0802 28.1249 15.9687L30.0261 15.8507V15.2865C30.0261 14.4534 29.5036 14.0008 28.5719 14.0008C27.8039 14.0008 27.2436 14.4141 27.1303 15.0438H25.758C25.802 13.7187 26.9981 12.7544 28.616 12.7544C30.3597 12.7544 31.4929 13.7056 31.4929 15.1816V20.272H30.0827V19.0453H30.0513ZM28.2125 19.1372C27.4004 19.1372 26.8842 18.7305 26.8842 18.1073C26.8842 17.4645 27.3815 17.0906 28.3321 17.0315L30.0255 16.92V17.4973C30.0255 18.455 29.2449 19.1372 28.2125 19.1372ZM36.1702 20.6721C35.5596 22.4629 34.8608 23.0533 33.3751 23.0533C33.2618 23.0533 32.8841 23.0402 32.796 23.014V21.7873C32.8904 21.8004 33.1233 21.8135 33.2429 21.8135C33.9165 21.8135 34.2942 21.5183 34.5272 20.7508L34.6657 20.2982L32.0846 12.8528H33.6773L35.4714 18.8944H35.5029L37.2971 12.8528H38.8457L36.1702 20.6721Z" fill="white"/>
</svg>
