<svg width="90" height="18" viewBox="0 0 90 18" fill="none" xmlns="http://www.w3.org/2000/svg">
<path d="M9.31008 13.4111L12.8566 15.6577C13.31 15.9446 13.8725 15.5177 13.7381 14.9884L12.7138 10.9581C12.6848 10.8458 12.6882 10.7276 12.7234 10.6172C12.7586 10.5067 12.8243 10.4085 12.9129 10.3337L16.0933 7.68712C16.5106 7.33949 16.2958 6.64593 15.7586 6.61105L11.6056 6.34105C11.4938 6.33312 11.3866 6.29359 11.2964 6.22707C11.2061 6.16055 11.1367 6.06977 11.096 5.9653L9.5469 2.06493C9.50472 1.95408 9.42984 1.85867 9.33219 1.79136C9.23455 1.72404 9.11875 1.68799 9.00015 1.68799C8.88155 1.68799 8.76575 1.72404 8.6681 1.79136C8.57046 1.85867 8.49558 1.95408 8.4534 2.06493L6.90427 5.9653C6.86372 6.06988 6.79429 6.16077 6.70406 6.2274C6.61383 6.29402 6.50652 6.33364 6.39465 6.34161L2.24171 6.61161C1.70508 6.64593 1.48908 7.33949 1.90702 7.68712L5.0874 10.3342C5.17588 10.409 5.2415 10.5072 5.27673 10.6175C5.31195 10.7278 5.31534 10.8459 5.28652 10.9581L4.33702 14.6959C4.17558 15.3309 4.85115 15.8434 5.39452 15.4986L8.69077 13.4111C8.78342 13.3522 8.89093 13.3209 9.00071 13.3209C9.11049 13.3209 9.218 13.3522 9.31065 13.4111H9.31008Z" fill="#FF8A00"/>
<path d="M27.3101 13.4111L30.8566 15.6577C31.31 15.9446 31.8725 15.5177 31.7381 14.9884L30.7138 10.9581C30.6848 10.8458 30.6882 10.7276 30.7234 10.6172C30.7586 10.5067 30.8243 10.4085 30.9129 10.3337L34.0933 7.68711C34.5106 7.33949 34.2958 6.64593 33.7586 6.61105L29.6056 6.34105C29.4938 6.33312 29.3866 6.29359 29.2964 6.22707C29.2061 6.16055 29.1367 6.06977 29.096 5.9653L27.5469 2.06493C27.5047 1.95408 27.4298 1.85867 27.3322 1.79136C27.2345 1.72404 27.1187 1.68799 27.0001 1.68799C26.8815 1.68799 26.7657 1.72404 26.6681 1.79136C26.5705 1.85867 26.4956 1.95408 26.4534 2.06493L24.9043 5.9653C24.8637 6.06988 24.7943 6.16077 24.7041 6.2274C24.6138 6.29402 24.5065 6.33364 24.3946 6.34161L20.2417 6.61161C19.7051 6.64593 19.4891 7.33949 19.907 7.68711L23.0874 10.3342C23.1759 10.409 23.2415 10.5072 23.2767 10.6175C23.3119 10.7278 23.3153 10.8459 23.2865 10.9581L22.337 14.6959C22.1756 15.3309 22.8511 15.8434 23.3945 15.4986L26.6908 13.4111C26.7834 13.3522 26.8909 13.3209 27.0007 13.3209C27.1105 13.3209 27.218 13.3522 27.3106 13.4111H27.3101Z" fill="#FF8A00"/>
<path d="M45.3101 13.4111L48.8566 15.6577C49.31 15.9446 49.8725 15.5177 49.7381 14.9884L48.7138 10.9581C48.6848 10.8458 48.6882 10.7276 48.7234 10.6172C48.7586 10.5067 48.8243 10.4085 48.9129 10.3337L52.0933 7.68711C52.5106 7.33949 52.2958 6.64593 51.7586 6.61105L47.6056 6.34105C47.4938 6.33312 47.3866 6.29359 47.2964 6.22707C47.2061 6.16055 47.1367 6.06977 47.096 5.9653L45.5469 2.06493C45.5047 1.95408 45.4298 1.85867 45.3322 1.79136C45.2345 1.72404 45.1187 1.68799 45.0001 1.68799C44.8815 1.68799 44.7657 1.72404 44.6681 1.79136C44.5705 1.85867 44.4956 1.95408 44.4534 2.06493L42.9043 5.9653C42.8637 6.06988 42.7943 6.16077 42.7041 6.2274C42.6138 6.29402 42.5065 6.33364 42.3946 6.34161L38.2417 6.61161C37.7051 6.64593 37.4891 7.33949 37.907 7.68711L41.0874 10.3342C41.1759 10.409 41.2415 10.5072 41.2767 10.6175C41.3119 10.7278 41.3153 10.8459 41.2865 10.9581L40.337 14.6959C40.1756 15.3309 40.8511 15.8434 41.3945 15.4986L44.6908 13.4111C44.7834 13.3522 44.8909 13.3209 45.0007 13.3209C45.1105 13.3209 45.218 13.3522 45.3106 13.4111H45.3101Z" fill="#FF8A00"/>
<path d="M63.3101 13.4111L66.8566 15.6577C67.31 15.9446 67.8725 15.5177 67.7381 14.9884L66.7138 10.9581C66.6848 10.8458 66.6882 10.7276 66.7234 10.6172C66.7586 10.5067 66.8243 10.4085 66.9129 10.3337L70.0933 7.68711C70.5106 7.33949 70.2958 6.64593 69.7586 6.61105L65.6056 6.34105C65.4938 6.33312 65.3866 6.29359 65.2964 6.22707C65.2061 6.16055 65.1367 6.06977 65.096 5.9653L63.5469 2.06493C63.5047 1.95408 63.4298 1.85867 63.3322 1.79136C63.2345 1.72404 63.1187 1.68799 63.0001 1.68799C62.8815 1.68799 62.7657 1.72404 62.6681 1.79136C62.5705 1.85867 62.4956 1.95408 62.4534 2.06493L60.9043 5.9653C60.8637 6.06988 60.7943 6.16077 60.7041 6.2274C60.6138 6.29402 60.5065 6.33364 60.3946 6.34161L56.2417 6.61161C55.7051 6.64593 55.4891 7.33949 55.907 7.68711L59.0874 10.3342C59.1759 10.409 59.2415 10.5072 59.2767 10.6175C59.3119 10.7278 59.3153 10.8459 59.2865 10.9581L58.337 14.6959C58.1756 15.3309 58.8511 15.8434 59.3945 15.4986L62.6908 13.4111C62.7834 13.3522 62.8909 13.3209 63.0007 13.3209C63.1105 13.3209 63.218 13.3522 63.3106 13.4111H63.3101Z" fill="#FF8A00"/>
<path d="M81.3101 13.4111L84.8566 15.6577C85.31 15.9446 85.8725 15.5177 85.7381 14.9884L84.7138 10.9581C84.6848 10.8458 84.6882 10.7276 84.7234 10.6172C84.7586 10.5067 84.8243 10.4085 84.9129 10.3337L88.0933 7.68711C88.5106 7.33949 88.2958 6.64593 87.7586 6.61105L83.6056 6.34105C83.4938 6.33312 83.3866 6.29359 83.2964 6.22707C83.2061 6.16055 83.1367 6.06977 83.096 5.9653L81.5469 2.06493C81.5047 1.95408 81.4298 1.85867 81.3322 1.79136C81.2345 1.72404 81.1187 1.68799 81.0001 1.68799C80.8815 1.68799 80.7657 1.72404 80.6681 1.79136C80.5705 1.85867 80.4956 1.95408 80.4534 2.06493L78.9043 5.9653C78.8637 6.06988 78.7943 6.16077 78.7041 6.2274C78.6138 6.29402 78.5065 6.33364 78.3946 6.34161L74.2417 6.61161C73.7051 6.64593 73.4891 7.33949 73.907 7.68711L77.0874 10.3342C77.1759 10.409 77.2415 10.5072 77.2767 10.6175C77.3119 10.7278 77.3153 10.8459 77.2865 10.9581L76.337 14.6959C76.1756 15.3309 76.8511 15.8434 77.3945 15.4986L80.6908 13.4111C80.7834 13.3522 80.8909 13.3209 81.0007 13.3209C81.1105 13.3209 81.218 13.3522 81.3106 13.4111H81.3101Z" fill="#FF8A00"/>
</svg>
