<svg width="90" height="18" viewBox="0 0 90 18" fill="none" xmlns="http://www.w3.org/2000/svg">
<path d="M9.30984 13.4111L12.8564 15.6577C13.3098 15.9446 13.8723 15.5177 13.7378 14.9884L12.7135 10.9581C12.6846 10.8458 12.6879 10.7276 12.7232 10.6172C12.7584 10.5067 12.8241 10.4085 12.9127 10.3337L16.093 7.68712C16.5104 7.33949 16.2955 6.64593 15.7583 6.61105L11.6054 6.34105C11.4936 6.33312 11.3863 6.29359 11.2961 6.22707C11.2059 6.16055 11.1364 6.06977 11.0958 5.9653L9.54665 2.06493C9.50447 1.95408 9.42959 1.85867 9.33195 1.79136C9.2343 1.72404 9.1185 1.68799 8.9999 1.68799C8.8813 1.68799 8.7655 1.72404 8.66786 1.79136C8.57021 1.85867 8.49533 1.95408 8.45315 2.06493L6.90403 5.9653C6.86348 6.06988 6.79404 6.16077 6.70381 6.2274C6.61359 6.29402 6.50628 6.33364 6.3944 6.34161L2.24147 6.61161C1.70484 6.64593 1.48884 7.33949 1.90678 7.68712L5.08715 10.3342C5.17564 10.409 5.24126 10.5072 5.27648 10.6175C5.3117 10.7278 5.3151 10.8459 5.28628 10.9581L4.33678 14.6959C4.17534 15.3309 4.8509 15.8434 5.39428 15.4986L8.69053 13.4111C8.78317 13.3522 8.89068 13.3209 9.00047 13.3209C9.11025 13.3209 9.21776 13.3522 9.3104 13.4111H9.30984Z" fill="#FF8A00"/>
<path d="M27.3098 13.4111L30.8564 15.6577C31.3098 15.9446 31.8723 15.5177 31.7378 14.9884L30.7135 10.9581C30.6846 10.8458 30.6879 10.7276 30.7232 10.6172C30.7584 10.5067 30.8241 10.4085 30.9127 10.3337L34.093 7.68711C34.5104 7.33949 34.2955 6.64593 33.7583 6.61105L29.6054 6.34105C29.4936 6.33312 29.3863 6.29359 29.2961 6.22707C29.2059 6.16055 29.1364 6.06977 29.0958 5.9653L27.5467 2.06493C27.5045 1.95408 27.4296 1.85867 27.3319 1.79136C27.2343 1.72404 27.1185 1.68799 26.9999 1.68799C26.8813 1.68799 26.7655 1.72404 26.6679 1.79136C26.5702 1.85867 26.4953 1.95408 26.4532 2.06493L24.904 5.9653C24.8635 6.06988 24.794 6.16077 24.7038 6.2274C24.6136 6.29402 24.5063 6.33364 24.3944 6.34161L20.2415 6.61161C19.7048 6.64593 19.4888 7.33949 19.9068 7.68711L23.0872 10.3342C23.1756 10.409 23.2413 10.5072 23.2765 10.6175C23.3117 10.7278 23.3151 10.8459 23.2863 10.9581L22.3368 14.6959C22.1753 15.3309 22.8509 15.8434 23.3943 15.4986L26.6905 13.4111C26.7832 13.3522 26.8907 13.3209 27.0005 13.3209C27.1102 13.3209 27.2178 13.3522 27.3104 13.4111H27.3098Z" fill="#FF8A00"/>
<path d="M45.3098 13.4111L48.8564 15.6577C49.3098 15.9446 49.8723 15.5177 49.7378 14.9884L48.7135 10.9581C48.6846 10.8458 48.6879 10.7276 48.7232 10.6172C48.7584 10.5067 48.8241 10.4085 48.9127 10.3337L52.093 7.68711C52.5104 7.33949 52.2955 6.64593 51.7583 6.61105L47.6054 6.34105C47.4936 6.33312 47.3863 6.29359 47.2961 6.22707C47.2059 6.16055 47.1364 6.06977 47.0958 5.9653L45.5467 2.06493C45.5045 1.95408 45.4296 1.85867 45.3319 1.79136C45.2343 1.72404 45.1185 1.68799 44.9999 1.68799C44.8813 1.68799 44.7655 1.72404 44.6679 1.79136C44.5702 1.85867 44.4953 1.95408 44.4532 2.06493L42.904 5.9653C42.8635 6.06988 42.794 6.16077 42.7038 6.2274C42.6136 6.29402 42.5063 6.33364 42.3944 6.34161L38.2415 6.61161C37.7048 6.64593 37.4888 7.33949 37.9068 7.68711L41.0872 10.3342C41.1756 10.409 41.2413 10.5072 41.2765 10.6175C41.3117 10.7278 41.3151 10.8459 41.2863 10.9581L40.3368 14.6959C40.1753 15.3309 40.8509 15.8434 41.3943 15.4986L44.6905 13.4111C44.7832 13.3522 44.8907 13.3209 45.0005 13.3209C45.1102 13.3209 45.2178 13.3522 45.3104 13.4111H45.3098Z" fill="#FF8A00"/>
<path d="M63.3098 13.4111L66.8564 15.6577C67.3098 15.9446 67.8723 15.5177 67.7378 14.9884L66.7135 10.9581C66.6846 10.8458 66.6879 10.7276 66.7232 10.6172C66.7584 10.5067 66.8241 10.4085 66.9127 10.3337L70.093 7.68711C70.5104 7.33949 70.2955 6.64593 69.7583 6.61105L65.6054 6.34105C65.4936 6.33312 65.3863 6.29359 65.2961 6.22707C65.2059 6.16055 65.1364 6.06977 65.0958 5.9653L63.5467 2.06493C63.5045 1.95408 63.4296 1.85867 63.3319 1.79136C63.2343 1.72404 63.1185 1.68799 62.9999 1.68799C62.8813 1.68799 62.7655 1.72404 62.6679 1.79136C62.5702 1.85867 62.4953 1.95408 62.4532 2.06493L60.904 5.9653C60.8635 6.06988 60.794 6.16077 60.7038 6.2274C60.6136 6.29402 60.5063 6.33364 60.3944 6.34161L56.2415 6.61161C55.7048 6.64593 55.4888 7.33949 55.9068 7.68711L59.0872 10.3342C59.1756 10.409 59.2413 10.5072 59.2765 10.6175C59.3117 10.7278 59.3151 10.8459 59.2863 10.9581L58.3368 14.6959C58.1753 15.3309 58.8509 15.8434 59.3943 15.4986L62.6905 13.4111C62.7832 13.3522 62.8907 13.3209 63.0005 13.3209C63.1102 13.3209 63.2178 13.3522 63.3104 13.4111H63.3098Z" fill="#FF8A00"/>
<path d="M81.3098 13.4111L84.8564 15.6577C85.3098 15.9446 85.8723 15.5177 85.7378 14.9884L84.7135 10.9581C84.6846 10.8458 84.6879 10.7276 84.7232 10.6172C84.7584 10.5067 84.8241 10.4085 84.9127 10.3337L88.093 7.68711C88.5104 7.33949 88.2955 6.64593 87.7583 6.61105L83.6054 6.34105C83.4936 6.33312 83.3863 6.29359 83.2961 6.22707C83.2059 6.16055 83.1364 6.06977 83.0958 5.9653L81.5467 2.06493C81.5045 1.95408 81.4296 1.85867 81.3319 1.79136C81.2343 1.72404 81.1185 1.68799 80.9999 1.68799C80.8813 1.68799 80.7655 1.72404 80.6679 1.79136C80.5702 1.85867 80.4953 1.95408 80.4532 2.06493L78.904 5.9653C78.8635 6.06988 78.794 6.16077 78.7038 6.2274C78.6136 6.29402 78.5063 6.33364 78.3944 6.34161L74.2415 6.61161C73.7048 6.64593 73.4888 7.33949 73.9068 7.68711L77.0872 10.3342C77.1756 10.409 77.2413 10.5072 77.2765 10.6175C77.3117 10.7278 77.3151 10.8459 77.2863 10.9581L76.3368 14.6959C76.1753 15.3309 76.8509 15.8434 77.3943 15.4986L80.6905 13.4111C80.7832 13.3522 80.8907 13.3209 81.0005 13.3209C81.1102 13.3209 81.2178 13.3522 81.3104 13.4111H81.3098Z" fill="#CCCCCC"/>
</svg>
