<svg width="32" height="33" viewBox="0 0 32 33" fill="none" xmlns="http://www.w3.org/2000/svg">
<g id="leaf 1" clip-path="url(#clip0_1_2561)">
<g id="Group">
<g id="Group_2">
<path id="Vector" d="M31.9762 1.3712C31.913 1.17858 31.7371 1.04539 31.5346 1.03695C30.515 0.994517 27.7282 1.00183 23.8825 1.9852C20.3028 2.90064 16.9436 4.40533 14.1678 6.3367C13.9475 6.49002 13.8933 6.79283 14.0465 7.01314C14.1997 7.23345 14.5025 7.28777 14.7229 7.13452C17.4042 5.2687 20.6549 3.81377 24.1232 2.92683C25.4192 2.59545 26.759 2.34389 28.0293 2.18627C27.5085 2.4112 26.9503 2.67439 26.3693 2.98289C22.4404 5.06858 20.2453 7.73552 19.0323 9.8792C18.8729 9.16395 18.8292 8.34189 18.8289 7.97552C18.8288 7.7072 18.6113 7.48977 18.343 7.48977C18.0746 7.48977 17.857 7.70733 17.857 7.9757C17.857 8.19077 17.8742 9.98302 18.417 11.0878C17.6689 12.6852 16.9692 14.2821 16.2921 15.8286C16.0045 16.4855 15.7214 17.132 15.4407 17.7649C15.0029 16.9405 14.4259 15.4479 14.5842 13.4956C14.6058 13.2282 14.4066 12.9937 14.139 12.972C13.8723 12.9508 13.6371 13.1496 13.6154 13.4171C13.388 16.2219 14.5033 18.1801 14.9558 18.848C14.1077 20.7223 13.2713 22.4484 12.3905 23.9217C11.937 22.895 11.2266 20.9387 11.2266 18.7604C11.2266 18.492 11.009 18.2745 10.7407 18.2745C10.4723 18.2745 10.2547 18.492 10.2547 18.7604C10.2547 21.6498 11.3723 24.1069 11.7745 24.8975C10.8122 26.3353 9.78466 27.4596 8.62397 28.1438C5.0881 24.3037 4.74322 17.0988 10.9204 10.4274C11.6226 9.66902 12.3932 8.94508 13.211 8.27577C13.4187 8.10577 13.4492 7.79964 13.2792 7.59195C13.1092 7.38427 12.803 7.35377 12.5954 7.5237C11.7432 8.22133 10.9397 8.97614 10.2073 9.76708C3.69135 16.8043 4.05847 24.4746 7.79466 28.6765C4.54104 30.8661 0.515287 31.0029 0.473161 31.0041C0.205036 31.0113 -0.00652601 31.2344 0.000473991 31.5026C0.00741149 31.7665 0.223536 31.9758 0.486036 31.9758C0.490349 31.9758 0.494724 31.9757 0.499036 31.9756C0.685537 31.9707 4.97985 31.83 8.49754 29.3732C9.56341 30.2429 11.2353 30.772 13.2624 30.772C15.5573 30.772 18.3075 30.0937 21.1483 28.4638C23.7801 26.9538 25.6669 24.6438 26.7564 21.5981C27.6894 18.9901 28.004 15.8521 27.6663 12.5234C27.0642 6.58933 29.3059 3.91164 31.818 1.90202C31.9762 1.77533 32.0392 1.56383 31.9762 1.3712ZM27.6835 5.34633C26.7276 7.34727 26.4057 9.72702 26.6993 12.6214C27.0225 15.8071 26.7258 18.798 25.8412 21.2707C24.8318 24.0926 23.0901 26.229 20.6646 27.6208C17.6038 29.377 15.0347 29.7749 13.4183 29.7995C11.7658 29.8254 10.3368 29.4726 9.37797 28.8195C10.176 28.3018 10.9087 27.6075 11.5972 26.7693C11.6351 26.7696 11.676 26.7698 11.7217 26.7698C12.1989 26.7698 13.088 26.7493 14.137 26.6268C16.2357 26.3815 17.8901 25.8636 19.0544 25.0875C19.2777 24.9386 19.338 24.6369 19.1892 24.4136C19.0403 24.1904 18.7386 24.1301 18.5153 24.2789C16.7217 25.4746 13.8327 25.7343 12.3415 25.7856C13.2868 24.4374 14.1575 22.8185 15.0162 21.0255C15.8612 21.0234 18.1043 20.8406 20.237 19.1404C20.4468 18.9731 20.4813 18.6673 20.314 18.4575C20.1467 18.2476 19.841 18.2132 19.6312 18.3805C18.0649 19.6291 16.4073 19.9518 15.4844 20.0291C16.0447 18.8166 16.6048 17.5374 17.1823 16.2185C17.4803 15.5377 17.783 14.8468 18.0918 14.1512C18.1251 14.152 18.1603 14.1525 18.1973 14.1525C18.9298 14.1525 20.3885 13.9738 21.9915 12.7861C22.2071 12.6264 22.2524 12.322 22.0926 12.1064C21.9328 11.8908 21.6285 11.8455 21.4128 12.0053C20.4238 12.738 19.5136 13.0133 18.9241 13.1152C18.7812 13.14 18.6504 13.1556 18.5322 13.1656C18.8154 12.5371 19.1045 11.9065 19.4013 11.2768C21.2117 7.43527 24.4233 5.12058 26.7988 3.85527C27.8286 3.30677 28.7951 2.90214 29.5882 2.61302C28.8914 3.34727 28.2114 4.24133 27.6835 5.34633Z" fill="#00B307"/>
</g>
</g>
</g>
<defs>
<clipPath id="clip0_1_2561">
<rect width="32" height="32" fill="white" transform="translate(0 0.5)"/>
</clipPath>
</defs>
</svg>
