<svg width="32" height="33" viewBox="0 0 32 33" fill="none" xmlns="http://www.w3.org/2000/svg">
<g id="price-tag 1" clip-path="url(#clip0_1_2551)">
<g id="Group">
<path id="Vector" d="M28.0671 24.7499C28.326 24.7499 28.5359 24.5401 28.5359 24.2812V13.0312C28.5359 12.4717 28.3178 11.8994 27.9219 11.4197L24.4454 7.20756C24.2633 6.98688 24.0539 6.80088 23.8265 6.65275C23.8405 6.5095 23.8484 6.36481 23.8484 6.21875V0.96875C23.8484 0.709875 23.6385 0.5 23.3797 0.5C23.1208 0.5 22.9109 0.709875 22.9109 0.96875C22.9109 0.96875 22.91 6.26344 22.9096 6.28581C22.7762 6.26219 22.6409 6.25 22.5047 6.25H16.4422C16.0154 6.25 15.597 6.36975 15.2224 6.58981C15.2062 6.59563 15.1902 6.60213 15.1744 6.60981L10.605 8.83556C10.0987 9.0895 9.69392 9.51544 9.46498 10.0349C9.46248 10.0406 9.46011 10.0463 9.45786 10.052L7.56861 14.844C7.47367 15.0849 7.59192 15.3571 7.83279 15.4521C7.88923 15.4743 7.94736 15.4848 8.00461 15.4848C8.19148 15.4848 8.36811 15.3723 8.44079 15.1879L10.3264 10.4051C10.4682 10.0883 10.7161 9.82875 11.0204 9.676L13.4347 8.50006L11.0249 11.4198C10.6641 11.8569 10.4734 12.4142 10.4734 13.0313V29.2188C10.4734 29.4073 10.49 29.5919 10.52 29.7718L5.68992 27.6315C4.59879 27.1481 4.10429 25.8639 4.58779 24.7689C4.58986 24.7641 4.59186 24.7593 4.59386 24.7546L7.64904 17.1618C7.74567 16.9216 7.62936 16.6486 7.38917 16.5519C7.14886 16.4553 6.87598 16.5717 6.77929 16.8118L3.72679 24.3975C3.04042 25.9631 3.74942 27.797 5.31011 28.4885L10.9741 30.9983C10.981 31.0013 10.9881 31.0036 10.9951 31.0063C11.57 31.9045 12.5639 32.4999 13.6922 32.4999H25.2547C27.0333 32.4999 28.5359 30.9973 28.5359 29.2187V26.4687C28.5359 26.2098 28.326 25.9999 28.0672 25.9999C27.8083 25.9999 27.5984 26.2098 27.5984 26.4687V29.2187C27.5984 30.4891 26.5251 31.5624 25.2547 31.5624H13.6922C12.4343 31.5624 11.4109 30.5111 11.4109 29.2187V13.0312C11.4109 12.6288 11.5243 12.2874 11.748 12.0164L15.2244 7.80431C15.548 7.41231 15.9919 7.18744 16.4422 7.18744H22.5047C22.593 7.18744 22.681 7.19638 22.7679 7.21325C22.4745 8.21394 21.7476 9.04894 20.766 9.46738C20.5094 9.03806 20.0401 8.74994 19.5046 8.74994C18.6947 8.74994 18.0359 9.40881 18.0359 10.2187C18.0359 11.0286 18.6947 11.6874 19.5046 11.6874C20.2535 11.6874 20.8729 11.1238 20.962 10.3985C22.2244 9.921 23.179 8.90925 23.6044 7.67431C23.6452 7.71538 23.6847 7.75856 23.7224 7.80431L27.1989 12.0165C27.4565 12.3286 27.5984 12.689 27.5984 13.0313V24.2813C27.5984 24.5401 27.8082 24.7499 28.0671 24.7499ZM19.5046 10.7499C19.2117 10.7499 18.9734 10.5116 18.9734 10.2187C18.9734 9.92575 19.2117 9.68744 19.5046 9.68744C19.7975 9.68744 20.0359 9.92575 20.0359 10.2187C20.0359 10.5116 19.7975 10.7499 19.5046 10.7499Z" fill="#00B307"/>
<path id="Vector_2" d="M15.4423 25.4375C15.5623 25.4375 15.6823 25.3917 15.7738 25.3002L23.7738 17.3002C23.9568 17.1171 23.9568 16.8203 23.7738 16.6373C23.5907 16.4542 23.2939 16.4542 23.1109 16.6373L15.1109 24.6373C14.812 24.9159 15.0413 25.4517 15.4423 25.4375Z" fill="#00B307"/>
<path id="Vector_3" d="M16.4421 20.5C17.5621 20.5 18.4733 19.5887 18.4733 18.4687C18.4733 17.3487 17.5621 16.4375 16.4421 16.4375H16.3796C15.2596 16.4375 14.3483 17.3487 14.3483 18.4687C14.3483 19.5887 15.2596 20.5 16.3796 20.5H16.4421ZM15.2858 18.4687C15.2858 17.8657 15.7765 17.375 16.3796 17.375H16.4421C17.0451 17.375 17.5358 17.8657 17.5358 18.4687C17.5358 19.0718 17.0451 19.5625 16.4421 19.5625H16.3796C15.7765 19.5625 15.2858 19.0718 15.2858 18.4687Z" fill="#00B307"/>
<path id="Vector_4" d="M22.5046 25.4375H22.5671C23.6871 25.4375 24.5983 24.5262 24.5983 23.4062C24.5983 22.2862 23.6871 21.375 22.5671 21.375H22.5046C21.3846 21.375 20.4733 22.2862 20.4733 23.4062C20.4733 24.5262 21.3846 25.4375 22.5046 25.4375ZM22.5046 22.3125H22.5671C23.1701 22.3125 23.6608 22.8032 23.6608 23.4062C23.6608 24.0093 23.1701 24.5 22.5671 24.5H22.5046C21.9015 24.5 21.4108 24.0093 21.4108 23.4062C21.4108 22.8032 21.9015 22.3125 22.5046 22.3125Z" fill="#00B307"/>
</g>
</g>
<defs>
<clipPath id="clip0_1_2551">
<rect width="32" height="32" fill="white" transform="translate(0 0.5)"/>
</clipPath>
</defs>
</svg>
