<svg width="45" height="32" viewBox="0 0 45 32" fill="none" xmlns="http://www.w3.org/2000/svg">
<rect x="0.5" y="0.5" width="44" height="30.7647" rx="4.79412" fill="#1A1A1A" stroke="#333333"/>
<path fill-rule="evenodd" clip-rule="evenodd" d="M28.5579 24.3928C33.5143 24.3928 37.5323 20.4226 37.5323 15.5251C37.5323 10.6277 33.5143 6.65747 28.5579 6.65747C26.3367 6.65747 24.3039 7.45483 22.7368 8.77567C21.1697 7.45488 19.137 6.65755 16.9158 6.65755C11.9594 6.65755 7.94141 10.6277 7.94141 15.5252C7.94141 20.4227 11.9594 24.3928 16.9158 24.3928C19.1371 24.3928 21.1698 23.5955 22.7369 22.2746C24.304 23.5954 26.3367 24.3928 28.5579 24.3928Z" fill="#ED0006"/>
<path fill-rule="evenodd" clip-rule="evenodd" d="M22.7373 22.2742C24.6668 20.6477 25.8903 18.2276 25.8903 15.5251C25.8903 12.8226 24.6668 10.4025 22.7373 8.776C24.3045 7.45496 26.3374 6.65747 28.5588 6.65747C33.5152 6.65747 37.5332 10.6277 37.5332 15.5251C37.5332 20.4226 33.5152 24.3928 28.5588 24.3928C26.3374 24.3928 24.3045 23.5953 22.7373 22.2742Z" fill="#F9A000"/>
<path fill-rule="evenodd" clip-rule="evenodd" d="M22.7368 22.2747C24.6665 20.6482 25.8901 18.2279 25.8901 15.5253C25.8901 12.8226 24.6665 10.4024 22.7368 8.77588C20.8071 10.4024 19.5835 12.8226 19.5835 15.5253C19.5835 18.2279 20.8071 20.6482 22.7368 22.2747Z" fill="#FF5E00"/>
</svg>
