<svg width="90" height="19" viewBox="0 0 90 19" fill="none" xmlns="http://www.w3.org/2000/svg">
<path d="M9.31008 13.9111L12.8566 16.1577C13.31 16.4446 13.8725 16.0177 13.7381 15.4884L12.7138 11.4581C12.6848 11.3458 12.6882 11.2276 12.7234 11.1172C12.7586 11.0067 12.8243 10.9085 12.9129 10.8337L16.0933 8.18712C16.5106 7.83949 16.2958 7.14593 15.7586 7.11105L11.6056 6.84105C11.4938 6.83312 11.3866 6.79359 11.2964 6.72707C11.2061 6.66055 11.1367 6.56977 11.096 6.4653L9.5469 2.56493C9.50472 2.45408 9.42984 2.35867 9.33219 2.29136C9.23455 2.22404 9.11875 2.18799 9.00015 2.18799C8.88155 2.18799 8.76575 2.22404 8.6681 2.29136C8.57046 2.35867 8.49558 2.45408 8.4534 2.56493L6.90427 6.4653C6.86372 6.56988 6.79429 6.66077 6.70406 6.7274C6.61383 6.79402 6.50652 6.83364 6.39465 6.84162L2.24171 7.11161C1.70508 7.14593 1.48908 7.83949 1.90702 8.18712L5.0874 10.8342C5.17588 10.909 5.2415 11.0072 5.27673 11.1175C5.31195 11.2278 5.31534 11.3459 5.28652 11.4581L4.33702 15.1959C4.17558 15.8309 4.85115 16.3434 5.39452 15.9986L8.69077 13.9111C8.78342 13.8522 8.89093 13.8209 9.00071 13.8209C9.11049 13.8209 9.218 13.8522 9.31065 13.9111H9.31008Z" fill="#FF8A00"/>
<path d="M27.3101 13.9111L30.8566 16.1577C31.31 16.4446 31.8725 16.0177 31.7381 15.4884L30.7138 11.4581C30.6848 11.3458 30.6882 11.2276 30.7234 11.1172C30.7586 11.0067 30.8243 10.9085 30.9129 10.8337L34.0933 8.18711C34.5106 7.83949 34.2958 7.14593 33.7586 7.11105L29.6056 6.84105C29.4938 6.83312 29.3866 6.79359 29.2964 6.72707C29.2061 6.66055 29.1367 6.56977 29.096 6.4653L27.5469 2.56493C27.5047 2.45408 27.4298 2.35867 27.3322 2.29136C27.2345 2.22404 27.1187 2.18799 27.0001 2.18799C26.8815 2.18799 26.7657 2.22404 26.6681 2.29136C26.5705 2.35867 26.4956 2.45408 26.4534 2.56493L24.9043 6.4653C24.8637 6.56988 24.7943 6.66077 24.7041 6.7274C24.6138 6.79402 24.5065 6.83364 24.3946 6.84161L20.2417 7.11161C19.7051 7.14593 19.4891 7.83949 19.907 8.18711L23.0874 10.8342C23.1759 10.909 23.2415 11.0072 23.2767 11.1175C23.3119 11.2278 23.3153 11.3459 23.2865 11.4581L22.337 15.1959C22.1756 15.8309 22.8511 16.3434 23.3945 15.9986L26.6908 13.9111C26.7834 13.8522 26.8909 13.8209 27.0007 13.8209C27.1105 13.8209 27.218 13.8522 27.3106 13.9111H27.3101Z" fill="#CCCCCC"/>
<path d="M45.3101 13.9111L48.8566 16.1577C49.31 16.4446 49.8725 16.0177 49.7381 15.4884L48.7138 11.4581C48.6848 11.3458 48.6882 11.2276 48.7234 11.1172C48.7586 11.0067 48.8243 10.9085 48.9129 10.8337L52.0933 8.18711C52.5106 7.83949 52.2958 7.14593 51.7586 7.11105L47.6056 6.84105C47.4938 6.83312 47.3866 6.79359 47.2964 6.72707C47.2061 6.66055 47.1367 6.56977 47.096 6.4653L45.5469 2.56493C45.5047 2.45408 45.4298 2.35867 45.3322 2.29136C45.2345 2.22404 45.1187 2.18799 45.0001 2.18799C44.8815 2.18799 44.7657 2.22404 44.6681 2.29136C44.5705 2.35867 44.4956 2.45408 44.4534 2.56493L42.9043 6.4653C42.8637 6.56988 42.7943 6.66077 42.7041 6.7274C42.6138 6.79402 42.5065 6.83364 42.3946 6.84161L38.2417 7.11161C37.7051 7.14593 37.4891 7.83949 37.907 8.18711L41.0874 10.8342C41.1759 10.909 41.2415 11.0072 41.2767 11.1175C41.3119 11.2278 41.3153 11.3459 41.2865 11.4581L40.337 15.1959C40.1756 15.8309 40.8511 16.3434 41.3945 15.9986L44.6908 13.9111C44.7834 13.8522 44.8909 13.8209 45.0007 13.8209C45.1105 13.8209 45.218 13.8522 45.3106 13.9111H45.3101Z" fill="#CCCCCC"/>
<path d="M63.3101 13.9111L66.8566 16.1577C67.31 16.4446 67.8725 16.0177 67.7381 15.4884L66.7138 11.4581C66.6848 11.3458 66.6882 11.2276 66.7234 11.1172C66.7586 11.0067 66.8243 10.9085 66.9129 10.8337L70.0933 8.18711C70.5106 7.83949 70.2958 7.14593 69.7586 7.11105L65.6056 6.84105C65.4938 6.83312 65.3866 6.79359 65.2964 6.72707C65.2061 6.66055 65.1367 6.56977 65.096 6.4653L63.5469 2.56493C63.5047 2.45408 63.4298 2.35867 63.3322 2.29136C63.2345 2.22404 63.1187 2.18799 63.0001 2.18799C62.8815 2.18799 62.7657 2.22404 62.6681 2.29136C62.5705 2.35867 62.4956 2.45408 62.4534 2.56493L60.9043 6.4653C60.8637 6.56988 60.7943 6.66077 60.7041 6.7274C60.6138 6.79402 60.5065 6.83364 60.3946 6.84161L56.2417 7.11161C55.7051 7.14593 55.4891 7.83949 55.907 8.18711L59.0874 10.8342C59.1759 10.909 59.2415 11.0072 59.2767 11.1175C59.3119 11.2278 59.3153 11.3459 59.2865 11.4581L58.337 15.1959C58.1756 15.8309 58.8511 16.3434 59.3945 15.9986L62.6908 13.9111C62.7834 13.8522 62.8909 13.8209 63.0007 13.8209C63.1105 13.8209 63.218 13.8522 63.3106 13.9111H63.3101Z" fill="#CCCCCC"/>
<path d="M81.3101 13.9111L84.8566 16.1577C85.31 16.4446 85.8725 16.0177 85.7381 15.4884L84.7138 11.4581C84.6848 11.3458 84.6882 11.2276 84.7234 11.1172C84.7586 11.0067 84.8243 10.9085 84.9129 10.8337L88.0933 8.18711C88.5106 7.83949 88.2958 7.14593 87.7586 7.11105L83.6056 6.84105C83.4938 6.83312 83.3866 6.79359 83.2964 6.72707C83.2061 6.66055 83.1367 6.56977 83.096 6.4653L81.5469 2.56493C81.5047 2.45408 81.4298 2.35867 81.3322 2.29136C81.2345 2.22404 81.1187 2.18799 81.0001 2.18799C80.8815 2.18799 80.7657 2.22404 80.6681 2.29136C80.5705 2.35867 80.4956 2.45408 80.4534 2.56493L78.9043 6.4653C78.8637 6.56988 78.7943 6.66077 78.7041 6.7274C78.6138 6.79402 78.5065 6.83364 78.3946 6.84161L74.2417 7.11161C73.7051 7.14593 73.4891 7.83949 73.907 8.18711L77.0874 10.8342C77.1759 10.909 77.2415 11.0072 77.2767 11.1175C77.3119 11.2278 77.3153 11.3459 77.2865 11.4581L76.337 15.1959C76.1756 15.8309 76.8511 16.3434 77.3945 15.9986L80.6908 13.9111C80.7834 13.8522 80.8909 13.8209 81.0007 13.8209C81.1105 13.8209 81.218 13.8522 81.3106 13.9111H81.3101Z" fill="#CCCCCC"/>
</svg>
