<svg width="348" height="36" viewBox="0 0 348 36" fill="none" xmlns="http://www.w3.org/2000/svg">
<rect width="36" height="36" rx="18" fill="#F2F2F2"/>
<path d="M20.9165 12.1666L15.0832 17.9999L20.9165 23.8333" stroke="#B3B3B3" stroke-width="1.5" stroke-linecap="round" stroke-linejoin="round"/>
<rect x="48" width="36" height="36" rx="18" fill="#00B307"/>
<path d="M63.9231 14V12.336H67.2511V24H65.4111V14H63.9231Z" fill="white"/>
<rect x="84" width="36" height="36" rx="18" fill="white"/>
<path d="M98.2144 22.832C99.5691 21.744 100.63 20.8533 101.398 20.16C102.166 19.456 102.812 18.7253 103.334 17.968C103.868 17.2 104.134 16.448 104.134 15.712C104.134 15.0187 103.964 14.4747 103.622 14.08C103.292 13.6747 102.753 13.472 102.006 13.472C101.281 13.472 100.716 13.7013 100.31 14.16C99.9158 14.608 99.7024 15.2107 99.6704 15.968H98.2624C98.3051 14.7733 98.6678 13.8507 99.3504 13.2C100.033 12.5493 100.913 12.224 101.99 12.224C103.089 12.224 103.958 12.528 104.598 13.136C105.249 13.744 105.574 14.5813 105.574 15.648C105.574 16.5333 105.308 17.3973 104.774 18.24C104.252 19.072 103.654 19.808 102.982 20.448C102.31 21.0773 101.452 21.8133 100.406 22.656H105.91V23.872H98.2144V22.832Z" fill="#666666"/>
<rect x="120" width="36" height="36" rx="18" fill="white"/>
<path d="M134.249 15.344C134.324 14.3627 134.702 13.5947 135.385 13.04C136.068 12.4853 136.953 12.208 138.041 12.208C138.766 12.208 139.39 12.3413 139.913 12.608C140.446 12.864 140.846 13.216 141.113 13.664C141.39 14.112 141.529 14.6187 141.529 15.184C141.529 15.8453 141.337 16.416 140.953 16.896C140.58 17.376 140.089 17.6853 139.481 17.824V17.904C140.174 18.0747 140.724 18.4107 141.129 18.912C141.534 19.4133 141.737 20.0693 141.737 20.88C141.737 21.488 141.598 22.0373 141.321 22.528C141.044 23.008 140.628 23.3867 140.073 23.664C139.518 23.9413 138.852 24.08 138.073 24.08C136.942 24.08 136.014 23.7867 135.289 23.2C134.564 22.6027 134.158 21.76 134.073 20.672H135.481C135.556 21.312 135.817 21.8347 136.265 22.24C136.713 22.6453 137.31 22.848 138.057 22.848C138.804 22.848 139.369 22.656 139.753 22.272C140.148 21.8773 140.345 21.3707 140.345 20.752C140.345 19.952 140.078 19.376 139.545 19.024C139.012 18.672 138.206 18.496 137.129 18.496H136.761V17.28H137.145C138.126 17.2693 138.868 17.1093 139.369 16.8C139.87 16.48 140.121 15.9893 140.121 15.328C140.121 14.7627 139.934 14.3093 139.561 13.968C139.198 13.6267 138.676 13.456 137.993 13.456C137.332 13.456 136.798 13.6267 136.393 13.968C135.988 14.3093 135.748 14.768 135.673 15.344H134.249Z" fill="#666666"/>
<rect x="156" width="36" height="36" rx="18" fill="white"/>
<path d="M169.609 21.424V20.32L175.225 12.544H176.969V20.16H178.569V21.424H176.969V24H175.529V21.424H169.609ZM175.593 14.064L171.289 20.16H175.593V14.064Z" fill="#666666"/>
<rect x="192" width="36" height="36" rx="18" fill="white"/>
<path d="M213.345 13.696H207.729V17.344C207.974 17.0027 208.337 16.7253 208.817 16.512C209.297 16.288 209.814 16.176 210.369 16.176C211.254 16.176 211.974 16.3627 212.529 16.736C213.083 17.0987 213.478 17.5733 213.713 18.16C213.958 18.736 214.081 19.3493 214.081 20C214.081 20.768 213.937 21.456 213.649 22.064C213.361 22.672 212.918 23.152 212.321 23.504C211.734 23.856 211.003 24.032 210.129 24.032C209.009 24.032 208.102 23.744 207.409 23.168C206.715 22.592 206.294 21.824 206.145 20.864H207.569C207.707 21.472 208.001 21.9467 208.449 22.288C208.897 22.6293 209.462 22.8 210.145 22.8C210.987 22.8 211.622 22.5493 212.049 22.048C212.475 21.536 212.689 20.864 212.689 20.032C212.689 19.2 212.475 18.56 212.049 18.112C211.622 17.6533 210.993 17.424 210.161 17.424C209.595 17.424 209.099 17.5627 208.673 17.84C208.257 18.1067 207.953 18.4747 207.761 18.944H206.385V12.416H213.345V13.696Z" fill="#666666"/>
<rect x="228" width="36" height="36" rx="18" fill="white"/>
<path d="M242.657 24.096C242.38 24.096 242.145 24 241.953 23.808C241.761 23.616 241.665 23.3813 241.665 23.104C241.665 22.8267 241.761 22.592 241.953 22.4C242.145 22.208 242.38 22.112 242.657 22.112C242.924 22.112 243.148 22.208 243.329 22.4C243.521 22.592 243.617 22.8267 243.617 23.104C243.617 23.3813 243.521 23.616 243.329 23.808C243.148 24 242.924 24.096 242.657 24.096ZM246.016 24.096C245.739 24.096 245.504 24 245.312 23.808C245.12 23.616 245.024 23.3813 245.024 23.104C245.024 22.8267 245.12 22.592 245.312 22.4C245.504 22.208 245.739 22.112 246.016 22.112C246.283 22.112 246.507 22.208 246.688 22.4C246.88 22.592 246.976 22.8267 246.976 23.104C246.976 23.3813 246.88 23.616 246.688 23.808C246.507 24 246.283 24.096 246.016 24.096ZM249.376 24.096C249.098 24.096 248.864 24 248.672 23.808C248.48 23.616 248.384 23.3813 248.384 23.104C248.384 22.8267 248.48 22.592 248.672 22.4C248.864 22.208 249.098 22.112 249.376 22.112C249.642 22.112 249.866 22.208 250.048 22.4C250.24 22.592 250.336 22.8267 250.336 23.104C250.336 23.3813 250.24 23.616 250.048 23.808C249.866 24 249.642 24.096 249.376 24.096Z" fill="#666666"/>
<rect x="264" width="36" height="36" rx="18" fill="white"/>
<path d="M275.652 22.832C277.007 21.744 278.068 20.8533 278.836 20.16C279.604 19.456 280.249 18.7253 280.772 17.968C281.305 17.2 281.572 16.448 281.572 15.712C281.572 15.0187 281.401 14.4747 281.06 14.08C280.729 13.6747 280.191 13.472 279.444 13.472C278.719 13.472 278.153 13.7013 277.748 14.16C277.353 14.608 277.14 15.2107 277.108 15.968H275.7C275.743 14.7733 276.105 13.8507 276.788 13.2C277.471 12.5493 278.351 12.224 279.428 12.224C280.527 12.224 281.396 12.528 282.036 13.136C282.687 13.744 283.012 14.5813 283.012 15.648C283.012 16.5333 282.745 17.3973 282.212 18.24C281.689 19.072 281.092 19.808 280.42 20.448C279.748 21.0773 278.889 21.8133 277.844 22.656H283.348V23.872H275.652V22.832ZM284.647 13.76V12.432H287.655V24H286.183V13.76H284.647Z" fill="#666666"/>
<rect x="-0.5" y="0.5" width="35" height="35" rx="17.5" transform="matrix(-1 0 0 1 347 0)" fill="white"/>
<rect x="-0.5" y="0.5" width="35" height="35" rx="17.5" transform="matrix(-1 0 0 1 347 0)" stroke="#E6E6E6"/>
<path d="M327.083 12.1666L332.917 17.9999L327.083 23.8333" stroke="#1A1A1A" stroke-width="1.5" stroke-linecap="round" stroke-linejoin="round"/>
</svg>
