<svg width="73" height="40" viewBox="0 0 73 40" fill="none" xmlns="http://www.w3.org/2000/svg">
<g filter="url(#filter0_d_141_5644)">
<rect x="4.5" y="0.5" width="64" height="31" rx="4.79412" fill="#1A1A1A" stroke="#333333"/>
<g clip-path="url(#clip0_141_5644)">
<rect width="11" height="11" transform="translate(9 4)" fill="#1A1A1A"/>
<path d="M17.7083 9.04199H11.2917C10.7854 9.04199 10.375 9.4524 10.375 9.95866V13.167C10.375 13.6733 10.7854 14.0837 11.2917 14.0837H17.7083C18.2146 14.0837 18.625 13.6733 18.625 13.167V9.95866C18.625 9.4524 18.2146 9.04199 17.7083 9.04199Z" stroke="white" stroke-width="0.916667" stroke-linecap="round" stroke-linejoin="round"/>
<path d="M12.2085 9.04199V7.20866C12.2085 6.60087 12.4499 6.01798 12.8797 5.58821C13.3095 5.15843 13.8924 4.91699 14.5002 4.91699C15.108 4.91699 15.6908 5.15843 16.1206 5.58821C16.5504 6.01798 16.7918 6.60087 16.7918 7.20866V9.04199" stroke="white" stroke-width="0.916667" stroke-linecap="round" stroke-linejoin="round"/>
</g>
<path d="M25.278 13.077C24.772 13.077 24.3173 12.989 23.914 12.813C23.518 12.6297 23.2063 12.3803 22.979 12.065C22.7517 11.7423 22.6343 11.372 22.627 10.954H23.694C23.7307 11.3133 23.8773 11.6177 24.134 11.867C24.398 12.109 24.7793 12.23 25.278 12.23C25.7547 12.23 26.1287 12.1127 26.4 11.878C26.6787 11.636 26.818 11.328 26.818 10.954C26.818 10.6607 26.7373 10.4223 26.576 10.239C26.4147 10.0557 26.213 9.91633 25.971 9.821C25.729 9.72567 25.4027 9.623 24.992 9.513C24.486 9.381 24.079 9.249 23.771 9.117C23.4703 8.985 23.21 8.77967 22.99 8.501C22.7773 8.215 22.671 7.83367 22.671 7.357C22.671 6.939 22.7773 6.56867 22.99 6.246C23.2027 5.92333 23.4997 5.674 23.881 5.498C24.2697 5.322 24.7133 5.234 25.212 5.234C25.9307 5.234 26.5173 5.41367 26.972 5.773C27.434 6.13233 27.6943 6.609 27.753 7.203H26.653C26.6163 6.90967 26.4623 6.653 26.191 6.433C25.9197 6.20567 25.5603 6.092 25.113 6.092C24.695 6.092 24.354 6.202 24.09 6.422C23.826 6.63467 23.694 6.93533 23.694 7.324C23.694 7.60267 23.771 7.83 23.925 8.006C24.0863 8.182 24.2807 8.31767 24.508 8.413C24.7427 8.501 25.069 8.60367 25.487 8.721C25.993 8.86033 26.4 8.99967 26.708 9.139C27.016 9.271 27.28 9.48 27.5 9.766C27.72 10.0447 27.83 10.426 27.83 10.91C27.83 11.284 27.731 11.636 27.533 11.966C27.335 12.296 27.0417 12.5637 26.653 12.769C26.2643 12.9743 25.806 13.077 25.278 13.077ZM34.8031 9.755C34.8031 9.94567 34.7921 10.1473 34.7701 10.36H29.9521C29.9887 10.954 30.1904 11.4197 30.5571 11.757C30.9311 12.087 31.3821 12.252 31.9101 12.252C32.3427 12.252 32.7021 12.153 32.9881 11.955C33.2814 11.7497 33.4867 11.4783 33.6041 11.141H34.6821C34.5207 11.7203 34.1981 12.1933 33.7141 12.56C33.2301 12.9193 32.6287 13.099 31.9101 13.099C31.3381 13.099 30.8247 12.9707 30.3701 12.714C29.9227 12.4573 29.5707 12.0943 29.3141 11.625C29.0574 11.1483 28.9291 10.5983 28.9291 9.975C28.9291 9.35167 29.0537 8.80533 29.3031 8.336C29.5524 7.86667 29.9007 7.50733 30.3481 7.258C30.8027 7.00133 31.3234 6.873 31.9101 6.873C32.4821 6.873 32.9881 6.99767 33.4281 7.247C33.8681 7.49633 34.2054 7.841 34.4401 8.281C34.6821 8.71367 34.8031 9.205 34.8031 9.755ZM33.7691 9.546C33.7691 9.16467 33.6847 8.83833 33.5161 8.567C33.3474 8.28833 33.1164 8.07933 32.8231 7.94C32.5371 7.79333 32.2181 7.72 31.8661 7.72C31.3601 7.72 30.9274 7.88133 30.5681 8.204C30.2161 8.52667 30.0144 8.974 29.9631 9.546H33.7691ZM35.7503 9.975C35.7503 9.35167 35.875 8.809 36.1243 8.347C36.3737 7.87767 36.7183 7.51467 37.1583 7.258C37.6057 7.00133 38.1153 6.873 38.6873 6.873C39.428 6.873 40.0367 7.05267 40.5133 7.412C40.9973 7.77133 41.3163 8.27 41.4703 8.908H40.3923C40.2897 8.54133 40.088 8.25167 39.7873 8.039C39.494 7.82633 39.1273 7.72 38.6873 7.72C38.1153 7.72 37.6533 7.918 37.3013 8.314C36.9493 8.70267 36.7733 9.25633 36.7733 9.975C36.7733 10.701 36.9493 11.262 37.3013 11.658C37.6533 12.054 38.1153 12.252 38.6873 12.252C39.1273 12.252 39.494 12.1493 39.7873 11.944C40.0807 11.7387 40.2823 11.4453 40.3923 11.064H41.4703C41.309 11.68 40.9863 12.175 40.5023 12.549C40.0183 12.9157 39.4133 13.099 38.6873 13.099C38.1153 13.099 37.6057 12.9707 37.1583 12.714C36.7183 12.4573 36.3737 12.0943 36.1243 11.625C35.875 11.1557 35.7503 10.6057 35.7503 9.975ZM48.152 6.972V13H47.151V12.109C46.9603 12.417 46.6927 12.659 46.348 12.835C46.0107 13.0037 45.6367 13.088 45.226 13.088C44.7567 13.088 44.335 12.9927 43.961 12.802C43.587 12.604 43.29 12.3107 43.07 11.922C42.8573 11.5333 42.751 11.0603 42.751 10.503V6.972H43.741V10.371C43.741 10.965 43.8913 11.4233 44.192 11.746C44.4927 12.0613 44.9033 12.219 45.424 12.219C45.9593 12.219 46.381 12.054 46.689 11.724C46.997 11.394 47.151 10.9137 47.151 10.283V6.972H48.152ZM50.8431 7.951C51.0191 7.60633 51.2685 7.33867 51.5911 7.148C51.9211 6.95733 52.3208 6.862 52.7901 6.862V7.896H52.5261C51.4041 7.896 50.8431 8.50467 50.8431 9.722V13H49.8421V6.972H50.8431V7.951ZM59.4456 9.755C59.4456 9.94567 59.4346 10.1473 59.4126 10.36H54.5946C54.6313 10.954 54.833 11.4197 55.1996 11.757C55.5736 12.087 56.0246 12.252 56.5526 12.252C56.9853 12.252 57.3446 12.153 57.6306 11.955C57.924 11.7497 58.1293 11.4783 58.2466 11.141H59.3246C59.1633 11.7203 58.8406 12.1933 58.3566 12.56C57.8726 12.9193 57.2713 13.099 56.5526 13.099C55.9806 13.099 55.4673 12.9707 55.0126 12.714C54.5653 12.4573 54.2133 12.0943 53.9566 11.625C53.7 11.1483 53.5716 10.5983 53.5716 9.975C53.5716 9.35167 53.6963 8.80533 53.9456 8.336C54.195 7.86667 54.5433 7.50733 54.9906 7.258C55.4453 7.00133 55.966 6.873 56.5526 6.873C57.1246 6.873 57.6306 6.99767 58.0706 7.247C58.5106 7.49633 58.848 7.841 59.0826 8.281C59.3246 8.71367 59.4456 9.205 59.4456 9.755ZM58.4116 9.546C58.4116 9.16467 58.3273 8.83833 58.1586 8.567C57.99 8.28833 57.759 8.07933 57.4656 7.94C57.1796 7.79333 56.8606 7.72 56.5086 7.72C56.0026 7.72 55.57 7.88133 55.2106 8.204C54.8586 8.52667 54.657 8.974 54.6056 9.546H58.4116Z" fill="white"/>
<path d="M15.8032 20.216C15.8032 20.664 15.6952 21.084 15.4792 21.476C15.2712 21.868 14.9392 22.184 14.4832 22.424C14.0352 22.664 13.4672 22.784 12.7792 22.784H11.3752V26H9.69519V17.624H12.7792C13.4272 17.624 13.9792 17.736 14.4352 17.96C14.8912 18.184 15.2312 18.492 15.4552 18.884C15.6872 19.276 15.8032 19.72 15.8032 20.216ZM12.7072 21.428C13.1712 21.428 13.5152 21.324 13.7392 21.116C13.9632 20.9 14.0752 20.6 14.0752 20.216C14.0752 19.4 13.6192 18.992 12.7072 18.992H11.3752V21.428H12.7072ZM16.564 22.652C16.564 21.98 16.696 21.384 16.96 20.864C17.232 20.344 17.596 19.944 18.052 19.664C18.516 19.384 19.032 19.244 19.6 19.244C20.096 19.244 20.528 19.344 20.896 19.544C21.272 19.744 21.572 19.996 21.796 20.3V19.352H23.488V26H21.796V25.028C21.58 25.34 21.28 25.6 20.896 25.808C20.52 26.008 20.084 26.108 19.588 26.108C19.028 26.108 18.516 25.964 18.052 25.676C17.596 25.388 17.232 24.984 16.96 24.464C16.696 23.936 16.564 23.332 16.564 22.652ZM21.796 22.676C21.796 22.268 21.716 21.92 21.556 21.632C21.396 21.336 21.18 21.112 20.908 20.96C20.636 20.8 20.344 20.72 20.032 20.72C19.72 20.72 19.432 20.796 19.168 20.948C18.904 21.1 18.688 21.324 18.52 21.62C18.36 21.908 18.28 22.252 18.28 22.652C18.28 23.052 18.36 23.404 18.52 23.708C18.688 24.004 18.904 24.232 19.168 24.392C19.44 24.552 19.728 24.632 20.032 24.632C20.344 24.632 20.636 24.556 20.908 24.404C21.18 24.244 21.396 24.02 21.556 23.732C21.716 23.436 21.796 23.084 21.796 22.676ZM31.4888 19.352L27.3728 29.144H25.5848L27.0248 25.832L24.3608 19.352H26.2448L27.9608 23.996L29.7008 19.352H31.4888ZM40.6504 19.256C41.4664 19.256 42.1224 19.508 42.6184 20.012C43.1224 20.508 43.3744 21.204 43.3744 22.1V26H41.6944V22.328C41.6944 21.808 41.5624 21.412 41.2984 21.14C41.0344 20.86 40.6744 20.72 40.2184 20.72C39.7624 20.72 39.3984 20.86 39.1264 21.14C38.8624 21.412 38.7304 21.808 38.7304 22.328V26H37.0504V22.328C37.0504 21.808 36.9184 21.412 36.6544 21.14C36.3904 20.86 36.0304 20.72 35.5744 20.72C35.1104 20.72 34.7424 20.86 34.4704 21.14C34.2064 21.412 34.0744 21.808 34.0744 22.328V26H32.3944V19.352H34.0744V20.156C34.2904 19.876 34.5664 19.656 34.9024 19.496C35.2464 19.336 35.6224 19.256 36.0304 19.256C36.5504 19.256 37.0144 19.368 37.4224 19.592C37.8304 19.808 38.1464 20.12 38.3704 20.528C38.5864 20.144 38.8984 19.836 39.3064 19.604C39.7224 19.372 40.1704 19.256 40.6504 19.256ZM51.1486 22.532C51.1486 22.772 51.1326 22.988 51.1006 23.18H46.2406C46.2806 23.66 46.4486 24.036 46.7446 24.308C47.0406 24.58 47.4046 24.716 47.8366 24.716C48.4606 24.716 48.9046 24.448 49.1686 23.912H50.9806C50.7886 24.552 50.4206 25.08 49.8766 25.496C49.3326 25.904 48.6646 26.108 47.8726 26.108C47.2326 26.108 46.6566 25.968 46.1446 25.688C45.6406 25.4 45.2446 24.996 44.9566 24.476C44.6766 23.956 44.5366 23.356 44.5366 22.676C44.5366 21.988 44.6766 21.384 44.9566 20.864C45.2366 20.344 45.6286 19.944 46.1326 19.664C46.6366 19.384 47.2166 19.244 47.8726 19.244C48.5046 19.244 49.0686 19.38 49.5646 19.652C50.0686 19.924 50.4566 20.312 50.7286 20.816C51.0086 21.312 51.1486 21.884 51.1486 22.532ZM49.4086 22.052C49.4006 21.62 49.2446 21.276 48.9406 21.02C48.6366 20.756 48.2646 20.624 47.8246 20.624C47.4086 20.624 47.0566 20.752 46.7686 21.008C46.4886 21.256 46.3166 21.604 46.2526 22.052H49.4086ZM56.0589 19.256C56.8509 19.256 57.4909 19.508 57.9789 20.012C58.4669 20.508 58.7109 21.204 58.7109 22.1V26H57.0309V22.328C57.0309 21.8 56.8989 21.396 56.6349 21.116C56.3709 20.828 56.0109 20.684 55.5549 20.684C55.0909 20.684 54.7229 20.828 54.4509 21.116C54.1869 21.396 54.0549 21.8 54.0549 22.328V26H52.3749V19.352H54.0549V20.18C54.2789 19.892 54.5629 19.668 54.9069 19.508C55.2589 19.34 55.6429 19.256 56.0589 19.256ZM62.2645 20.732V23.948C62.2645 24.172 62.3165 24.336 62.4205 24.44C62.5325 24.536 62.7165 24.584 62.9725 24.584H63.7525V26H62.6965C61.2805 26 60.5725 25.312 60.5725 23.936V20.732H59.7805V19.352H60.5725V17.708H62.2645V19.352H63.7525V20.732H62.2645Z" fill="white"/>
</g>
<defs>
<filter id="filter0_d_141_5644" x="0" y="0" width="73" height="40" filterUnits="userSpaceOnUse" color-interpolation-filters="sRGB">
<feFlood flood-opacity="0" result="BackgroundImageFix"/>
<feColorMatrix in="SourceAlpha" type="matrix" values="0 0 0 0 0 0 0 0 0 0 0 0 0 0 0 0 0 0 127 0" result="hardAlpha"/>
<feOffset dy="4"/>
<feGaussianBlur stdDeviation="2"/>
<feComposite in2="hardAlpha" operator="out"/>
<feColorMatrix type="matrix" values="0 0 0 0 0 0 0 0 0 0 0 0 0 0 0 0 0 0 0.25 0"/>
<feBlend mode="normal" in2="BackgroundImageFix" result="effect1_dropShadow_141_5644"/>
<feBlend mode="normal" in="SourceGraphic" in2="effect1_dropShadow_141_5644" result="shape"/>
</filter>
<clipPath id="clip0_141_5644">
<rect width="11" height="11" fill="white" transform="translate(9 4)"/>
</clipPath>
</defs>
</svg>
