<svg width="90" height="21" viewBox="0 0 90 21" fill="none" xmlns="http://www.w3.org/2000/svg">
<path d="M9.31008 14.9111L12.8566 17.1577C13.31 17.4446 13.8725 17.0177 13.7381 16.4884L12.7138 12.4581C12.6848 12.3458 12.6882 12.2276 12.7234 12.1172C12.7586 12.0067 12.8243 11.9085 12.9129 11.8337L16.0933 9.18712C16.5106 8.83949 16.2958 8.14593 15.7586 8.11105L11.6056 7.84105C11.4938 7.83312 11.3866 7.79359 11.2964 7.72707C11.2061 7.66055 11.1367 7.56977 11.096 7.4653L9.5469 3.56493C9.50472 3.45408 9.42984 3.35867 9.33219 3.29136C9.23455 3.22404 9.11875 3.18799 9.00015 3.18799C8.88155 3.18799 8.76575 3.22404 8.6681 3.29136C8.57046 3.35867 8.49558 3.45408 8.4534 3.56493L6.90427 7.4653C6.86372 7.56988 6.79429 7.66077 6.70406 7.7274C6.61383 7.79402 6.50652 7.83364 6.39465 7.84162L2.24171 8.11161C1.70508 8.14593 1.48908 8.83949 1.90702 9.18712L5.0874 11.8342C5.17588 11.909 5.2415 12.0072 5.27673 12.1175C5.31195 12.2278 5.31534 12.3459 5.28652 12.4581L4.33702 16.1959C4.17558 16.8309 4.85115 17.3434 5.39452 16.9986L8.69077 14.9111C8.78342 14.8522 8.89093 14.8209 9.00071 14.8209C9.11049 14.8209 9.218 14.8522 9.31065 14.9111H9.31008Z" fill="#FF8A00"/>
<path d="M27.3101 14.9111L30.8566 17.1577C31.31 17.4446 31.8725 17.0177 31.7381 16.4884L30.7138 12.4581C30.6848 12.3458 30.6882 12.2276 30.7234 12.1172C30.7586 12.0067 30.8243 11.9085 30.9129 11.8337L34.0933 9.18711C34.5106 8.83949 34.2958 8.14593 33.7586 8.11105L29.6056 7.84105C29.4938 7.83312 29.3866 7.79359 29.2964 7.72707C29.2061 7.66055 29.1367 7.56977 29.096 7.4653L27.5469 3.56493C27.5047 3.45408 27.4298 3.35867 27.3322 3.29136C27.2345 3.22404 27.1187 3.18799 27.0001 3.18799C26.8815 3.18799 26.7657 3.22404 26.6681 3.29136C26.5705 3.35867 26.4956 3.45408 26.4534 3.56493L24.9043 7.4653C24.8637 7.56988 24.7943 7.66077 24.7041 7.7274C24.6138 7.79402 24.5065 7.83364 24.3946 7.84161L20.2417 8.11161C19.7051 8.14593 19.4891 8.83949 19.907 9.18711L23.0874 11.8342C23.1759 11.909 23.2415 12.0072 23.2767 12.1175C23.3119 12.2278 23.3153 12.3459 23.2865 12.4581L22.337 16.1959C22.1756 16.8309 22.8511 17.3434 23.3945 16.9986L26.6908 14.9111C26.7834 14.8522 26.8909 14.8209 27.0007 14.8209C27.1105 14.8209 27.218 14.8522 27.3106 14.9111H27.3101Z" fill="#FF8A00"/>
<path d="M45.3101 14.9111L48.8566 17.1577C49.31 17.4446 49.8725 17.0177 49.7381 16.4884L48.7138 12.4581C48.6848 12.3458 48.6882 12.2276 48.7234 12.1172C48.7586 12.0067 48.8243 11.9085 48.9129 11.8337L52.0933 9.18711C52.5106 8.83949 52.2958 8.14593 51.7586 8.11105L47.6056 7.84105C47.4938 7.83312 47.3866 7.79359 47.2964 7.72707C47.2061 7.66055 47.1367 7.56977 47.096 7.4653L45.5469 3.56493C45.5047 3.45408 45.4298 3.35867 45.3322 3.29136C45.2345 3.22404 45.1187 3.18799 45.0001 3.18799C44.8815 3.18799 44.7657 3.22404 44.6681 3.29136C44.5705 3.35867 44.4956 3.45408 44.4534 3.56493L42.9043 7.4653C42.8637 7.56988 42.7943 7.66077 42.7041 7.7274C42.6138 7.79402 42.5065 7.83364 42.3946 7.84161L38.2417 8.11161C37.7051 8.14593 37.4891 8.83949 37.907 9.18711L41.0874 11.8342C41.1759 11.909 41.2415 12.0072 41.2767 12.1175C41.3119 12.2278 41.3153 12.3459 41.2865 12.4581L40.337 16.1959C40.1756 16.8309 40.8511 17.3434 41.3945 16.9986L44.6908 14.9111C44.7834 14.8522 44.8909 14.8209 45.0007 14.8209C45.1105 14.8209 45.218 14.8522 45.3106 14.9111H45.3101Z" fill="#FF8A00"/>
<path d="M63.3101 14.9111L66.8566 17.1577C67.31 17.4446 67.8725 17.0177 67.7381 16.4884L66.7138 12.4581C66.6848 12.3458 66.6882 12.2276 66.7234 12.1172C66.7586 12.0067 66.8243 11.9085 66.9129 11.8337L70.0933 9.18711C70.5106 8.83949 70.2958 8.14593 69.7586 8.11105L65.6056 7.84105C65.4938 7.83312 65.3866 7.79359 65.2964 7.72707C65.2061 7.66055 65.1367 7.56977 65.096 7.4653L63.5469 3.56493C63.5047 3.45408 63.4298 3.35867 63.3322 3.29136C63.2345 3.22404 63.1187 3.18799 63.0001 3.18799C62.8815 3.18799 62.7657 3.22404 62.6681 3.29136C62.5705 3.35867 62.4956 3.45408 62.4534 3.56493L60.9043 7.4653C60.8637 7.56988 60.7943 7.66077 60.7041 7.7274C60.6138 7.79402 60.5065 7.83364 60.3946 7.84161L56.2417 8.11161C55.7051 8.14593 55.4891 8.83949 55.907 9.18711L59.0874 11.8342C59.1759 11.909 59.2415 12.0072 59.2767 12.1175C59.3119 12.2278 59.3153 12.3459 59.2865 12.4581L58.337 16.1959C58.1756 16.8309 58.8511 17.3434 59.3945 16.9986L62.6908 14.9111C62.7834 14.8522 62.8909 14.8209 63.0007 14.8209C63.1105 14.8209 63.218 14.8522 63.3106 14.9111H63.3101Z" fill="#CCCCCC"/>
<path d="M81.3101 14.9111L84.8566 17.1577C85.31 17.4446 85.8725 17.0177 85.7381 16.4884L84.7138 12.4581C84.6848 12.3458 84.6882 12.2276 84.7234 12.1172C84.7586 12.0067 84.8243 11.9085 84.9129 11.8337L88.0933 9.18711C88.5106 8.83949 88.2958 8.14593 87.7586 8.11105L83.6056 7.84105C83.4938 7.83312 83.3866 7.79359 83.2964 7.72707C83.2061 7.66055 83.1367 7.56977 83.096 7.4653L81.5469 3.56493C81.5047 3.45408 81.4298 3.35867 81.3322 3.29136C81.2345 3.22404 81.1187 3.18799 81.0001 3.18799C80.8815 3.18799 80.7657 3.22404 80.6681 3.29136C80.5705 3.35867 80.4956 3.45408 80.4534 3.56493L78.9043 7.4653C78.8637 7.56988 78.7943 7.66077 78.7041 7.7274C78.6138 7.79402 78.5065 7.83364 78.3946 7.84161L74.2417 8.11161C73.7051 8.14593 73.4891 8.83949 73.907 9.18711L77.0874 11.8342C77.1759 11.909 77.2415 12.0072 77.2767 12.1175C77.3119 12.2278 77.3153 12.3459 77.2865 12.4581L76.337 16.1959C76.1756 16.8309 76.8511 17.3434 77.3945 16.9986L80.6908 14.9111C80.7834 14.8522 80.8909 14.8209 81.0007 14.8209C81.1105 14.8209 81.218 14.8522 81.3106 14.9111H81.3101Z" fill="#CCCCCC"/>
</svg>
